<?xml version="1.0" encoding="iso-8859-1"?>
<!-- Generator: Adobe Illustrator 19.0.0, SVG Export Plug-In . SVG Version: 6.00 Build 0)  -->
<!-- License: CC0. Made by SVG Repo: https://www.svgrepo.com/svg/202729/real-estate-house -->
<svg version="1.1" id="Layer_1" xmlns="http://www.w3.org/2000/svg" xmlns:xlink="http://www.w3.org/1999/xlink" x="0px" y="0px"
	 viewBox="0 0 512.001 512.001" style="enable-background:new 0 0 512.001 512.001;" xml:space="preserve">
<polygon style="fill:#FFB14D;" points="450.581,141.22 450.581,484.776 319.46,484.776 319.46,297.999 192.54,297.999 
	192.54,484.776 60.26,484.776 60.26,141.22 256,28.383 "/>
<path style="fill:#11113F;" d="M506.289,160.355L261.875,16.547c-3.626-2.134-8.124-2.134-11.749,0L5.711,160.355
	c-5.514,3.245-7.353,10.344-4.109,15.858s10.343,7.354,15.858,4.109l34.721-20.429v325.578c0,6.398,5.186,11.584,11.584,11.584
	h129.853c6.398,0,11.584-5.186,11.584-11.584V303.184h101.6v182.287c0,6.398,5.186,11.584,11.584,11.584h129.853
	c6.398,0,11.584-5.186,11.584-11.584V159.894l34.721,20.429c1.845,1.085,3.867,1.602,5.864,1.602c3.97,0,7.836-2.042,9.994-5.711
	C513.643,170.699,511.803,163.6,506.289,160.355z M436.653,473.887H329.968V291.6c0-6.398-5.186-11.584-11.584-11.584H193.617
	c-6.398,0-11.584,5.186-11.584,11.584v182.287H75.348V146.262L256.001,39.97l180.653,106.293L436.653,473.887L436.653,473.887z"/>
</svg>
